<svg width="29" height="31" viewBox="0 0 29 31" fill="none" xmlns="http://www.w3.org/2000/svg">
<path d="M20.9167 8.625H20.9284M8.66671 3H20.3334C23.555 3 26.1667 5.79822 26.1667 9.25V21.75C26.1667 25.2018 23.555 28 20.3334 28H8.66671C5.44505 28 2.83337 25.2018 2.83337 21.75V9.25C2.83337 5.79822 5.44505 3 8.66671 3ZM19.1667 14.7125C19.3107 15.7528 19.1448 16.8153 18.6928 17.7488C18.2407 18.6823 17.5254 19.4393 16.6486 19.9121C15.7718 20.3849 14.7782 20.5495 13.8091 20.3824C12.84 20.2153 11.9448 19.7251 11.2507 18.9815C10.5566 18.2378 10.0991 17.2786 9.94312 16.2403C9.78718 15.2019 9.94078 14.1374 10.3821 13.198C10.8234 12.2586 11.5299 11.4922 12.4012 11.0078C13.2725 10.5234 14.2641 10.3457 15.235 10.5C16.2255 10.6574 17.1424 11.1518 17.8503 11.9104C18.5583 12.6689 19.0198 13.6513 19.1667 14.7125Z" stroke="#1E1E1E" stroke-linecap="round" stroke-linejoin="round"/>
</svg>
