<svg width="35" height="36" viewBox="0 0 35 36" fill="none" xmlns="http://www.w3.org/2000/svg">
<path d="M31.5449 3.99463C31.809 4.01766 31.9946 4.09937 32.1113 4.23682C32.2125 4.35615 32.3218 4.58706 32.3125 5.03955L32.3008 5.24756L32.2998 5.25537C32.2624 5.7802 32.0708 6.99248 31.8125 8.63623C31.5572 10.2607 31.2428 12.2745 30.9668 14.3687L29.0781 26.7573L29.0752 26.7729L29.0742 26.7876V26.7886C29.0741 26.7899 29.0737 26.793 29.0732 26.7974C29.0722 26.8063 29.0702 26.8213 29.0674 26.8413C29.0617 26.8818 29.0519 26.943 29.0361 27.0181C29.0042 27.1698 28.9491 27.3718 28.8584 27.5786C28.6967 27.9471 28.4496 28.2736 28.0635 28.4224L27.8896 28.4751C27.3563 28.5939 26.6048 28.3861 25.8594 28.0366C25.1382 27.6986 24.5421 27.2861 24.376 27.1528L24.3643 27.1431L23.9902 26.8911C23.7972 26.7637 23.5433 26.5971 23.252 26.4058C22.6537 26.0128 21.8657 25.4945 21.0273 24.9292C19.5508 23.9335 17.9419 22.8106 16.9229 21.981L16.5244 21.644L16.5195 21.6401L16.3516 21.478C16.1955 21.3074 16.0793 21.1133 16.0479 20.9155C16.0131 20.6962 16.0634 20.3436 16.6025 19.8706L16.6104 19.8628L16.6182 19.856L24.8809 11.9653L24.8896 11.9565C25.1592 11.6862 25.425 11.3312 25.6084 10.9888C25.6999 10.8179 25.7797 10.6338 25.8252 10.4526C25.8674 10.2847 25.8992 10.046 25.8047 9.81592C25.6899 9.53654 25.4432 9.38845 25.1777 9.35498C24.9456 9.32582 24.6913 9.37904 24.4385 9.46631C23.9879 9.62187 23.3777 9.94458 22.5674 10.4761L22.208 10.7173L11.2109 18.1997C11.2106 18.1999 11.2099 18.2002 11.209 18.2007C11.2052 18.2029 11.1967 18.2086 11.1836 18.2153C11.1575 18.2288 11.1129 18.2497 11.0508 18.2749C10.9257 18.3257 10.7278 18.3923 10.46 18.4399C9.92685 18.5348 9.10103 18.5584 7.99609 18.2261H7.99512L2.96191 16.6733C2.93135 16.6497 2.89068 16.6157 2.84961 16.5737C2.75503 16.477 2.70083 16.3841 2.68945 16.311C2.68365 16.2736 2.6733 16.1675 2.8584 15.9819C3.06091 15.7789 3.47026 15.514 4.24707 15.229L4.26758 15.2222L4.28809 15.2124C12.1401 11.5121 21.7932 7.73469 30.3828 4.1792C30.3833 4.179 30.3846 4.17866 30.3857 4.17822C30.389 4.17699 30.3947 4.17513 30.4023 4.17236C30.4185 4.16655 30.4444 4.15771 30.4775 4.14697C30.544 4.12544 30.6399 4.09592 30.7549 4.06885C30.9913 4.01319 31.28 3.97157 31.5449 3.99463Z" stroke="black"/>
</svg>
