<svg width="122" height="122" viewBox="0 0 122 122" fill="none" xmlns="http://www.w3.org/2000/svg">
<g clip-path="url(#clip0_45_28)">
<path d="M86.6201 2C86.7023 3.23784 86.867 4.47067 87.1172 5.69141L87.1211 5.70898C88.0193 9.90265 89.8821 13.8753 92.5791 17.3867C95.2713 20.8918 98.7375 23.8623 102.754 26.1309V26.1318C107.922 29.1185 113.874 30.8352 120 31.1396V47.9863C109.072 47.6626 98.498 44.5201 89.6211 38.9561L86.5586 37.0371V83.2559C86.5557 90.6721 83.9668 97.9402 79.0918 104.088C74.213 110.24 67.2723 114.98 59.1699 117.632C51.0671 120.284 42.2219 120.709 33.8281 118.847C25.4345 116.984 17.928 112.931 12.2959 107.269C6.66703 101.609 3.1808 94.6173 2.25098 87.2412C1.32148 79.8678 2.98325 72.4055 7.0459 65.8428C11.112 59.2746 17.4008 53.9055 25.1104 50.4951C32.2948 47.317 40.3687 45.9937 48.3799 46.6729V63.8057C44.693 63.1957 40.8758 63.4159 37.2871 64.4639C32.8692 65.7541 28.985 68.2456 26.2168 71.627C23.4444 75.0137 21.9381 79.1189 21.9648 83.3564C21.9917 87.5937 23.5488 91.6821 26.3623 95.04C29.1718 98.3931 33.0862 100.847 37.5195 102.094C41.9527 103.341 46.7171 103.33 51.1436 102.063C55.5701 100.797 59.4707 98.3268 62.2617 94.9609C64.9696 91.6953 66.4947 87.7494 66.5898 83.6533L66.5947 83.2568V2H86.6201Z" stroke="black" stroke-width="4"/>
</g>
<defs>
<clipPath id="clip0_45_28">
<rect width="122" height="122" fill="white"/>
</clipPath>
</defs>
</svg>
