<svg width="29" height="33" viewBox="0 0 29 33" fill="none" xmlns="http://www.w3.org/2000/svg">
<path d="M27.2358 9.05999C27.0923 8.42721 26.8 7.84742 26.3884 7.3792C25.9768 6.91098 25.4605 6.57091 24.8917 6.39333C22.8133 5.83333 14.5 5.83333 14.5 5.83333C14.5 5.83333 6.18667 5.83333 4.10833 6.44666C3.53951 6.62424 3.02322 6.96432 2.61163 7.43254C2.20003 7.90076 1.9077 8.48054 1.76417 9.11333C1.3838 11.4407 1.19774 13.8017 1.20833 16.1667C1.19477 18.5494 1.38084 20.9284 1.76417 23.2733C1.92241 23.8865 2.22129 24.4442 2.63192 24.8926C3.04256 25.3411 3.55107 25.6651 4.10833 25.8333C6.18667 26.4467 14.5 26.4467 14.5 26.4467C14.5 26.4467 22.8133 26.4467 24.8917 25.8333C25.4605 25.6557 25.9768 25.3157 26.3884 24.8475C26.8 24.3792 27.0923 23.7994 27.2358 23.1667C27.6133 20.8568 27.7993 18.5138 27.7917 16.1667C27.8052 13.7839 27.6192 11.4049 27.2358 9.05999Z" stroke="#1E1E1E" stroke-linecap="round" stroke-linejoin="round"/>
<path d="M11.7812 20.5267L18.7292 16.1667L11.7812 11.8067V20.5267Z" stroke="#1E1E1E" stroke-linecap="round" stroke-linejoin="round"/>
</svg>
